<svg width="24" height="22" viewBox="0 0 24 22" fill="none" xmlns="http://www.w3.org/2000/svg">
<path d="M21 12C21.5523 12 22 11.5523 22 11C22 10.4477 21.5523 10 21 10L21 12ZM5.53401 10.2929C5.14349 10.6834 5.14349 11.3166 5.53401 11.7071L11.898 18.0711C12.2885 18.4616 12.9217 18.4616 13.3122 18.0711C13.7027 17.6805 13.7027 17.0474 13.3122 16.6569L7.65533 11L13.3122 5.34315C13.7027 4.95262 13.7027 4.31946 13.3122 3.92893C12.9217 3.53841 12.2885 3.53841 11.898 3.92893L5.53401 10.2929ZM21 10L6.24112 10L6.24112 12L21 12L21 10Z" fill="#841844"/>
</svg>
